<svg xmlns="http://www.w3.org/2000/svg" width="64" height="64" fill="none" viewBox="0 0 64 64"><path fill="#FF6060" d="M30.4889 39.2869C28.106 39.2869 26.2132 38.486 24.8105 36.8841C23.4158 35.2742 22.7185 33.1025 22.7185 30.3689C22.7185 27.6592 23.4238 25.4994 24.8344 23.8895C26.245 22.2717 28.1299 21.4628 30.4889 21.4628C32.3697 21.4628 33.9636 21.9888 35.2707 23.0408C36.5857 24.0848 37.3786 25.4675 37.6496 27.189H35.4739C35.195 26.0573 34.6012 25.1527 33.6927 24.4753C32.7841 23.7899 31.7162 23.4472 30.4889 23.4472C28.8073 23.4472 27.4604 24.0768 26.4483 25.336C25.4361 26.5952 24.93 28.2729 24.93 30.3689C24.93 32.4888 25.4321 34.1744 26.4363 35.4256C27.4405 36.6768 28.7953 37.3025 30.5008 37.3025C31.768 37.3025 32.8359 37.0116 33.7046 36.4298C34.5733 35.848 35.1631 35.0311 35.4739 33.9791H37.6496C37.2511 35.6846 36.4342 36.9956 35.1989 37.9121C33.9636 38.8287 32.3936 39.2869 30.4889 39.2869Z"/></svg>