<svg width="64" height="64" viewBox="0 0 64 64" fill="none" xmlns="http://www.w3.org/2000/svg">
<path d="M32.4757 30.9941C32.1968 31.273 31.8421 31.4125 31.4118 31.4125C30.9814 31.4125 30.6228 31.273 30.3359 30.9941C30.0569 30.7152 29.9175 30.3565 29.9175 29.9182C29.9175 29.4878 30.0569 29.1332 30.3359 28.8543C30.6228 28.5673 30.9814 28.4239 31.4118 28.4239C31.8342 28.4239 32.1888 28.5673 32.4757 28.8543C32.7626 29.1332 32.9061 29.4878 32.9061 29.9182C32.9061 30.3486 32.7626 30.7072 32.4757 30.9941ZM32.4757 39.5296C32.1968 39.8085 31.8421 39.948 31.4118 39.948C30.9814 39.948 30.6228 39.8085 30.3359 39.5296C30.0569 39.2507 29.9175 38.892 29.9175 38.4537C29.9175 38.0233 30.0569 37.6687 30.3359 37.3897C30.6228 37.1028 30.9814 36.9594 31.4118 36.9594C31.8342 36.9594 32.1888 37.1028 32.4757 37.3897C32.7626 37.6687 32.9061 38.0233 32.9061 38.4537C32.9061 38.8841 32.7626 39.2427 32.4757 39.5296ZM37.4846 35.0706H25.3269V33.3013H37.4846V35.0706Z" fill="#00B0D7"/>
</svg>
