<svg xmlns="http://www.w3.org/2000/svg" width="64" height="64" fill="none" viewBox="0 0 64 64"><path fill="#00B0D7" d="M28.5642 22.7061C29.2257 23.4871 29.5564 24.5271 29.5564 25.8262C29.5564 27.1252 29.2257 28.1653 28.5642 28.9463C27.9027 29.7273 27.026 30.1178 25.9342 30.1178C24.8424 30.1178 23.9657 29.7273 23.3042 28.9463C22.6427 28.1653 22.312 27.1252 22.312 25.8262C22.312 24.5271 22.6427 23.4871 23.3042 22.7061C23.9657 21.925 24.8424 21.5345 25.9342 21.5345C27.026 21.5345 27.9027 21.925 28.5642 22.7061ZM24.679 27.9063C24.9898 28.4083 25.4082 28.6594 25.9342 28.6594C26.4602 28.6594 26.8746 28.4083 27.1775 27.9063C27.4883 27.3962 27.6437 26.7028 27.6437 25.8262C27.6437 24.9495 27.4883 24.2601 27.1775 23.758C26.8746 23.248 26.4602 22.993 25.9342 22.993C25.4082 22.993 24.9898 23.248 24.679 23.758C24.3761 24.2601 24.2247 24.9495 24.2247 25.8262C24.2247 26.7028 24.3761 27.3962 24.679 27.9063ZM25.4082 39H23.3281L29.9868 29.9026L35.9521 21.7497H38.0082L31.5289 30.6199L25.4082 39ZM38.0441 31.7675C38.7056 32.5486 39.0363 33.5886 39.0363 34.8877C39.0363 36.1867 38.7056 37.2268 38.0441 38.0078C37.3826 38.7888 36.5059 39.1793 35.4141 39.1793C34.3223 39.1793 33.4456 38.7888 32.7841 38.0078C32.1226 37.2268 31.7919 36.1867 31.7919 34.8877C31.7919 33.5886 32.1226 32.5486 32.7841 31.7675C33.4456 30.9865 34.3223 30.596 35.4141 30.596C36.5059 30.596 37.3826 30.9865 38.0441 31.7675ZM34.1589 36.9677C34.4697 37.4698 34.8881 37.7209 35.4141 37.7209C35.9401 37.7209 36.3545 37.4698 36.6574 36.9677C36.9682 36.4577 37.1236 35.7643 37.1236 34.8877C37.1236 34.011 36.9682 33.3216 36.6574 32.8195C36.3545 32.3095 35.9401 32.0545 35.4141 32.0545C34.8881 32.0545 34.4697 32.3095 34.1589 32.8195C33.856 33.3216 33.7046 34.011 33.7046 34.8877C33.7046 35.7643 33.856 36.4577 34.1589 36.9677Z"/></svg>